PathFileType	4	(X/Y/Z)	 3.0Hz3min.trc
DataRate	CameraRate	NumFrames	NumMarkers	Units	OrigDataRate	OrigDataStartFrame	OrigNumFrames
200	200	8	35	m	200	626	1000
Frame#	Time	C7			LSH			RSH			MAN			RASI			LASI			HIPR			HIPL			RPSI			LPSI			COX			RTHI1			RTHI2			RTHI3			RTHI4			RSHA1			RSHA2			RSHA3			RSHA4			RHEEL			RMET5			RMET1			RTOE			LTHI1			LTHI2			LTHI3			LTHI4			LSHA1			LSHA2			LSHA3			LSHA4			LHEEL			LMET5			LMET1			LTOE			
		X1	Y1	Z1	X2	Y2	Z2	X3	Y3	Z3	X4	Y4	Z4	X5	Y5	Z5	X6	Y6	Z6	X7	Y7	Z7	X8	Y8	Z8	X9	Y9	Z9	X10	Y10	Z10	X11	Y11	Z11	X12	Y12	Z12	X13	Y13	Z13	X14	Y14	Z14	X15	Y15	Z15	X16	Y16	Z16	X17	Y17	Z17	X18	Y18	Z18	X19	Y19	Z19	X20	Y20	Z20	X21	Y21	Z21	X22	Y22	Z22	X23	Y23	Z23	X24	Y24	Z24	X25	Y25	Z25	X26	Y26	Z26	X27	Y27	Z27	X28	Y28	Z28	X29	Y29	Z29	X30	Y30	Z30	X31	Y31	Z31	X32	Y32	Z32	X33	Y33	Z33	X34	Y34	Z34	X35	Y35	Z35	
626	3.1300	-0.211270	1.359511	-0.524043	-0.148843	1.336812	-0.694329	-0.140177	1.324650	-0.350402	-0.088874	1.309207	-0.527373	-0.066399	0.906124	-0.445899	-0.061493	0.914855	-0.633582	-0.128459	0.958707	-0.403781	-0.111964	0.966670	-0.669049	-0.217167	0.941979	-0.480488	-0.212583	0.943198	-0.595607	-0.218842	0.951590	-0.538701	-0.175513	0.695821	-0.384219	-0.156661	0.639292	-0.378669	-0.096026	0.656523	-0.364637	-0.106822	0.717065	-0.367153	-0.225246	0.291591	-0.367716	-0.243102	0.255346	-0.370713	-0.193087	0.229497	-0.361709	-0.170502	0.265372	-0.361598	-0.319833	0.091435	-0.406509	-0.171464	0.029729	-0.344423	-0.140071	0.032398	-0.424304	-0.117574	0.027420	-0.413186	-0.137901	0.707080	-0.719833	-0.126741	0.646505	-0.721617	-0.063836	0.651345	-0.705911	-0.067569	0.710938	-0.702720	-0.236532	0.271700	-0.739842	-0.249466	0.229573	-0.737173	-0.199259	0.212218	-0.726581	-0.179694	0.247875	-0.728127	-0.334251	0.098956	-0.691788	-0.186040	0.029012	-0.759710	-0.156619	0.034834	-0.685234	-0.129805	0.026622	-0.696222	
627	3.1350	-0.211056	1.356503	-0.524230	-0.148879	1.333428	-0.694776	-0.140247	1.321223	-0.350325	-0.088482	1.305744	-0.527572	-0.066262	0.903139	-0.445658	-0.061251	0.911325	-0.634083	-0.129213	0.954962	-0.403527	-0.112286	0.962518	-0.669900	-0.217641	0.938244	-0.480588	-0.213132	0.939219	-0.596132	-0.219131	0.947924	-0.538986	-0.175580	0.693012	-0.384404	-0.156578	0.636508	-0.378896	-0.096047	0.653927	-0.364562	-0.107019	0.714429	-0.366983	-0.225733	0.289171	-0.368240	-0.243674	0.252997	-0.371255	-0.193726	0.226998	-0.362208	-0.171042	0.262802	-0.361954	-0.320835	0.089207	-0.407090	-0.171866	0.029507	-0.344341	-0.140120	0.032240	-0.424554	-0.117603	0.027381	-0.413238	-0.137648	0.704087	-0.719903	-0.126536	0.643492	-0.721594	-0.063669	0.648297	-0.705704	-0.067356	0.707903	-0.702575	-0.237063	0.268989	-0.739747	-0.250073	0.226953	-0.737013	-0.199955	0.209460	-0.726239	-0.180310	0.245087	-0.727829	-0.335449	0.096619	-0.691775	-0.186330	0.028693	-0.759877	-0.156931	0.034672	-0.685102	-0.129946	0.026596	-0.696278	
628	3.1400	-0.210879	1.353868	-0.524439	-0.148932	1.330300	-0.695271	-0.140402	1.318037	-0.350226	-0.088156	1.302613	-0.527767	-0.066068	0.900477	-0.445452	-0.060970	0.908128	-0.634548	-0.129726	0.951533	-0.403193	-0.112520	0.958600	-0.670772	-0.217995	0.935028	-0.480694	-0.213591	0.935721	-0.596681	-0.219355	0.944808	-0.539287	-0.175687	0.690700	-0.384698	-0.156659	0.634177	-0.379188	-0.096199	0.651694	-0.364514	-0.107235	0.712180	-0.366892	-0.226119	0.286885	-0.368674	-0.244124	0.250758	-0.371702	-0.194208	0.224644	-0.362723	-0.171460	0.260416	-0.362401	-0.321701	0.087210	-0.407617	-0.172227	0.029321	-0.344278	-0.140166	0.032110	-0.424779	-0.117632	0.027353	-0.413279	-0.137492	0.701680	-0.719901	-0.126452	0.641063	-0.721535	-0.063607	0.645810	-0.705509	-0.067236	0.705419	-0.702414	-0.237532	0.266670	-0.739617	-0.250618	0.224687	-0.736832	-0.200574	0.207089	-0.725901	-0.180862	0.242682	-0.727511	-0.336481	0.094547	-0.691715	-0.186579	0.028447	-0.760010	-0.157203	0.034542	-0.684980	-0.130078	0.026573	-0.696314	
629	3.1450	-0.210748	1.351638	-0.524667	-0.148986	1.327477	-0.695798	-0.140649	1.315152	-0.350114	-0.087920	1.299906	-0.527945	-0.065821	0.898199	-0.445296	-0.060659	0.905377	-0.634937	-0.130028	0.948450	-0.402896	-0.112651	0.955052	-0.671622	-0.218217	0.932414	-0.480794	-0.213903	0.932836	-0.597172	-0.219506	0.942299	-0.539578	-0.175849	0.688863	-0.385051	-0.156866	0.632279	-0.379542	-0.096448	0.649827	-0.364512	-0.107467	0.710317	-0.366879	-0.226403	0.284818	-0.369014	-0.244443	0.248721	-0.372052	-0.194529	0.222527	-0.363252	-0.171768	0.258298	-0.362916	-0.322429	0.085464	-0.408088	-0.172532	0.029175	-0.344244	-0.140205	0.032008	-0.424982	-0.117656	0.027333	-0.413315	-0.137408	0.699828	-0.719823	-0.126444	0.639193	-0.721432	-0.063609	0.643875	-0.705312	-0.067178	0.703484	-0.702233	-0.237936	0.264783	-0.739442	-0.251090	0.222829	-0.736626	-0.201105	0.205157	-0.725571	-0.181332	0.240714	-0.727178	-0.337341	0.092766	-0.691592	-0.186784	0.028266	-0.760093	-0.157424	0.034438	-0.684864	-0.130191	0.026551	-0.696331	
630	3.1500	-0.210672	1.349837	-0.524914	-0.149034	1.325016	-0.696338	-0.140989	1.312631	-0.349999	-0.087787	1.297710	-0.528098	-0.065526	0.896364	-0.445198	-0.060324	0.903180	-0.635215	-0.130056	0.945845	-0.402716	-0.112673	0.952041	-0.672395	-0.218325	0.930453	-0.480850	-0.214050	0.930634	-0.597549	-0.219583	0.940456	-0.539821	-0.176028	0.687458	-0.385458	-0.157124	0.630809	-0.379956	-0.096747	0.648331	-0.364571	-0.107703	0.708836	-0.366930	-0.226601	0.283057	-0.369264	-0.244649	0.246991	-0.372304	-0.194733	0.220736	-0.363757	-0.171991	0.256526	-0.363470	-0.323018	0.083988	-0.408488	-0.172772	0.029067	-0.344239	-0.140231	0.031926	-0.425163	-0.117671	0.027318	-0.413353	-0.137357	0.698489	-0.719688	-0.126464	0.637840	-0.721284	-0.063638	0.642456	-0.705102	-0.067142	0.702058	-0.702037	-0.238273	0.263333	-0.739222	-0.251482	0.221397	-0.736398	-0.201538	0.203673	-0.725235	-0.181719	0.239193	-0.726831	-0.338020	0.091310	-0.691417	-0.186948	0.028136	-0.760125	-0.157588	0.034352	-0.684751	-0.130274	0.026531	-0.696334	
631	3.1550	-0.210658	1.348477	-0.525175	-0.149071	1.322964	-0.696864	-0.141426	1.310532	-0.349906	-0.087759	1.296059	-0.528224	-0.065180	0.895020	-0.445159	-0.059970	0.901618	-0.635360	-0.130393	0.943774	-0.402219	-0.112579	0.949738	-0.673027	-0.218243	0.929106	-0.480903	-0.214026	0.929189	-0.597763	-0.219578	0.939217	-0.539979	-0.176204	0.686470	-0.385887	-0.157390	0.629755	-0.380414	-0.097053	0.647209	-0.364696	-0.107925	0.707742	-0.367033	-0.226751	0.281671	-0.369444	-0.244786	0.245617	-0.372484	-0.194872	0.219321	-0.364203	-0.172165	0.255155	-0.364043	-0.323478	0.082820	-0.408829	-0.172950	0.028994	-0.344257	-0.140246	0.031858	-0.425322	-0.117677	0.027307	-0.413391	-0.137303	0.697611	-0.719525	-0.126479	0.636954	-0.721098	-0.063658	0.641501	-0.704873	-0.067098	0.701100	-0.701837	-0.238546	0.262319	-0.738973	-0.251789	0.220408	-0.736157	-0.201876	0.202630	-0.724898	-0.182028	0.238128	-0.726481	-0.338515	0.090213	-0.691196	-0.187072	0.028053	-0.760117	-0.157696	0.034283	-0.684644	-0.130329	0.026514	-0.696326	
632	3.1600	-0.210716	1.347556	-0.525447	-0.149110	1.321358	-0.697357	-0.141950	1.308903	-0.349852	-0.087845	1.294922	-0.528325	-0.064787	0.894186	-0.445169	-0.059599	0.900737	-0.635370	-0.130393	0.942441	-0.401816	-0.112359	0.948282	-0.673468	-0.218048	0.928360	-0.480900	-0.213851	0.928487	-0.597808	-0.219457	0.938517	-0.540001	-0.176352	0.685889	-0.386296	-0.157626	0.629116	-0.380894	-0.097317	0.646480	-0.364876	-0.108100	0.707040	-0.367174	-0.226888	0.280689	-0.369592	-0.244914	0.244640	-0.372636	-0.194974	0.218340	-0.364591	-0.172313	0.254211	-0.364535	-0.323813	0.081979	-0.409098	-0.173070	0.028953	-0.344289	-0.140256	0.031804	-0.425455	-0.117681	0.027298	-0.413427	-0.137218	0.697164	-0.719362	-0.126468	0.636491	-0.720887	-0.063652	0.640980	-0.704633	-0.067023	0.700573	-0.701649	-0.238767	0.261732	-0.738701	-0.252029	0.219822	-0.735893	-0.202129	0.202016	-0.724570	-0.182272	0.237502	-0.726142	-0.338825	0.089500	-0.690939	-0.187160	0.028014	-0.760074	-0.157751	0.034225	-0.684542	-0.130356	0.026501	-0.696313	
633	3.1650	-0.210854	1.347076	-0.525721	-0.149164	1.320235	-0.697803	-0.142550	1.307791	-0.349817	-0.088011	1.294328	-0.528407	-0.064355	0.893858	-0.445203	-0.059215	0.900532	-0.635258	-0.130113	0.941944	-0.401498	-0.112017	0.947760	-0.673677	-0.217767	0.928154	-0.480820	-0.213562	0.928428	-0.597681	-0.219243	0.938311	-0.539888	-0.176441	0.685718	-0.386663	-0.157798	0.628893	-0.381352	-0.097506	0.646151	-0.365091	-0.108194	0.706736	-0.367344	-0.227041	0.280158	-0.369721	-0.245035	0.244119	-0.372757	-0.195078	0.217818	-0.364900	-0.172465	0.253723	-0.364933	-0.324020	0.081478	-0.409275	-0.173140	0.028938	-0.344327	-0.140265	0.031764	-0.425559	-0.117687	0.027294	-0.413459	-0.137094	0.697133	-0.719222	-0.126429	0.636443	-0.720673	-0.063614	0.640860	-0.704392	-0.066904	0.700459	-0.701487	-0.238967	0.261514	-0.738413	-0.252215	0.219622	-0.735625	-0.202305	0.201816	-0.724270	-0.182459	0.237312	-0.725839	-0.338950	0.089186	-0.690666	-0.187212	0.028011	-0.759998	-0.157756	0.034177	-0.684448	-0.130357	0.026493	-0.696295	
